<?xml version="1.0" standalone="no"?>
<!DOCTYPE svg PUBLIC "-//W3C//DTD SVG 20010904//EN"
 "http://www.w3.org/TR/2001/REC-SVG-20010904/DTD/svg10.dtd">
<svg version="1.0" xmlns="http://www.w3.org/2000/svg"
 width="685.000000pt" height="130.000000pt" viewBox="0 0 685.000000 130.000000"
 preserveAspectRatio="xMidYMid meet">

<g transform="translate(0.000000,130.000000) scale(0.100000,-0.100000)"
fill="#000000" stroke="none">
<path d="M2670 1145 c-17 -18 -24 -36 -23 -62 3 -109 165 -107 165 2 0 76 -91
114 -142 60z"/>
<path d="M1943 1150 c-12 -5 -27 -18 -33 -29 -7 -15 -10 -149 -8 -437 3 -398
4 -416 22 -430 25 -18 67 -18 92 0 18 14 19 32 22 400 l3 386 138 0 c172 0
174 -1 180 -126 6 -156 -9 -174 -142 -174 -101 0 -117 -7 -117 -51 0 -52 8
-59 69 -59 l56 0 115 -192 c123 -206 134 -217 185 -184 54 35 52 43 -50 211
-52 87 -95 161 -95 165 0 4 18 20 39 34 58 41 71 82 71 229 0 155 -17 197 -95
237 -47 24 -58 25 -240 27 -104 1 -200 -2 -212 -7z"/>
<path d="M3392 1148 c-8 -8 -12 -47 -12 -109 l0 -97 -147 -4 c-164 -4 -187
-11 -241 -72 -39 -44 -46 -102 -40 -340 3 -158 5 -178 24 -203 43 -57 77 -68
209 -68 l120 0 0 45 0 45 -97 6 c-57 3 -103 11 -112 18 -14 11 -16 44 -16 217
0 260 -11 244 170 244 l130 0 0 -285 c0 -271 1 -285 19 -295 30 -15 66 -12 84
8 15 17 17 62 17 448 0 321 -3 433 -12 442 -16 16 -80 16 -96 0z"/>
<path d="M4410 1151 c-48 -13 -50 -28 -50 -451 0 -299 3 -401 13 -420 l13 -25
249 0 249 0 6 25 c4 14 2 37 -3 53 l-9 27 -189 0 -189 0 0 340 0 340 168 0
c190 0 206 5 204 61 -1 56 -13 59 -236 58 -111 -1 -212 -4 -226 -8z"/>
<path d="M2688 929 c-17 -9 -18 -36 -18 -334 0 -355 0 -355 60 -355 60 0 60 0
60 355 0 310 -1 325 -19 335 -25 13 -61 12 -83 -1z"/>
<path d="M3791 931 c-43 -11 -80 -39 -109 -82 -23 -33 -23 -37 -20 -266 3
-261 4 -265 84 -310 35 -20 53 -23 178 -23 121 0 145 3 183 21 58 28 86 69 91
136 5 63 -7 83 -54 83 -39 0 -64 -22 -64 -56 0 -61 -41 -84 -150 -84 -77 0
-126 14 -140 40 -6 10 -10 103 -10 208 0 239 -5 232 152 232 103 0 107 -1 127
-26 16 -21 21 -41 21 -90 l0 -64 -100 0 c-87 0 -103 -3 -120 -20 -24 -24 -25
-38 -4 -68 16 -23 19 -23 164 -20 106 2 152 7 163 17 14 11 17 34 17 135 0
145 -12 178 -79 215 -39 22 -59 25 -170 27 -69 2 -141 -1 -160 -5z"/>
<path d="M4972 920 c-35 -33 -35 -34 85 -203 l84 -118 -101 -145 c-108 -154
-113 -169 -64 -200 43 -29 66 -12 153 111 45 63 85 115 89 115 4 0 42 -50 85
-111 90 -126 114 -143 155 -112 47 35 41 53 -63 199 -56 79 -94 141 -91 150 3
7 41 65 84 126 110 156 108 153 78 183 -51 51 -76 35 -186 -119 -59 -82 -65
-88 -76 -70 -8 10 -44 62 -81 114 -57 80 -73 95 -98 98 -20 2 -38 -4 -53 -18z"/>
<path d="M5620 928 l-25 -14 -3 -398 c-1 -286 1 -403 9 -412 16 -19 74 -18 93
2 14 13 16 61 16 370 l0 354 130 0 c180 0 170 13 170 -229 0 -104 -3 -197 -6
-205 -11 -28 -46 -40 -134 -46 l-85 -5 -3 -33 c-5 -53 9 -62 106 -62 102 0
151 13 197 54 48 42 58 103 53 326 -4 207 -14 239 -88 280 -43 24 -54 25 -225
28 -134 2 -186 -1 -205 -10z"/>
<path d="M6410 925 c-56 -18 -106 -65 -120 -113 -13 -47 -13 -396 0 -443 12
-42 51 -82 102 -103 57 -24 279 -22 333 3 92 42 105 81 105 318 0 103 -5 204
-10 225 -14 49 -64 96 -124 113 -63 19 -225 18 -286 0z m269 -114 c27 -27 33
-84 29 -259 -3 -142 -4 -153 -26 -174 -21 -21 -32 -23 -127 -23 -151 0 -149
-2 -153 206 -6 264 -3 269 153 269 90 0 108 -3 124 -19z"/>
<path d="M4633 786 c-61 -53 -21 -156 62 -156 21 0 44 9 62 24 61 53 21 156
-62 156 -21 0 -44 -9 -62 -24z"/>
<path d="M37 578 c11 -13 124 -143 252 -290 l232 -268 250 0 c138 0 249 4 247
8 -2 5 -113 135 -248 290 l-244 282 -255 0 -254 0 20 -22z"/>
</g>
</svg>
